<svg xmlns="http://www.w3.org/2000/svg" viewBox="0 0 128 128"><defs><style>.cls-1{isolation:isolate;}.cls-2{fill:#0c91ae;}.cls-3{opacity:0.3;}.cls-4{fill:#fff;}.cls-5{fill:#b3b3b3;}.cls-6{opacity:0.2;mix-blend-mode:multiply;}.cls-7{fill:none;stroke:#f36e51;stroke-miterlimit:10;stroke-width:4px;}</style></defs><title>Artboard 6</title><g class="cls-1"><g id="Layer_1" data-name="Layer 1"><rect class="cls-2" width="128" height="128"/><g class="cls-3"><path class="cls-4" d="M70.9,12.37H45.62v42H82.37V23.84Z"/><path class="cls-2" d="M77.12,49.12H50.87V43.87l7.88-13.12L69.54,43.87l7.59-5.25Z"/><path class="cls-2" d="M77.12,32.06a3.94,3.94,0,1,1-3.94-3.94A3.94,3.94,0,0,1,77.12,32.06Z"/><polygon class="cls-5" points="70.9 12.37 82.38 23.84 71.1 23.84 70.9 12.37"/></g><g class="cls-6"><polygon points="79 65.42 69 53.41 59 65.42 16 65.42 16 118.42 122 118.42 122 65.42 79 65.42"/></g><polygon class="cls-4" points="74 60.42 64 48.41 54 60.42 11 60.42 11 113.42 117 113.42 117 60.42 74 60.42"/><line class="cls-7" x1="23.32" y1="74.84" x2="104.69" y2="74.84"/><line class="cls-7" x1="23.32" y1="86.92" x2="104.69" y2="86.92"/><line class="cls-7" x1="23.32" y1="98.99" x2="73.19" y2="98.99"/></g></g></svg>